#define splash_width 84
#define splash_height 48
static unsigned char splash_bits[] = {
   0x00, 0x00, 0x00, 0x00, 0x00, 0x00, 0x00, 0x00, 0xf0, 0x03, 0x00, 0x00,
   0x00, 0x00, 0x00, 0x00, 0x00, 0x00, 0x00, 0x28, 0x04, 0x00, 0x00, 0x00,
   0x00, 0x00, 0x00, 0x00, 0x00, 0x00, 0x48, 0x04, 0x00, 0x00, 0xfe, 0x7f,
   0x98, 0xe1, 0xff, 0x07, 0x00, 0x88, 0x04, 0x00, 0x00, 0xfe, 0x7f, 0x98,
   0xe1, 0xff, 0x07, 0x00, 0xf0, 0x03, 0x00, 0x00, 0x06, 0x60, 0x66, 0x66,
   0x00, 0x06, 0x00, 0x00, 0x00, 0x00, 0x00, 0x06, 0x60, 0x66, 0x66, 0x00,
   0x06, 0x00, 0x00, 0x04, 0x00, 0x00, 0xe6, 0x67, 0x98, 0x61, 0x7e, 0x06,
   0x00, 0xf8, 0x07, 0x00, 0x00, 0xe6, 0x67, 0x98, 0x61, 0x7e, 0x06, 0x00,
   0x10, 0x04, 0x00, 0x00, 0xe6, 0x67, 0x06, 0x66, 0x7e, 0x06, 0x00, 0x00,
   0x00, 0x00, 0x00, 0xe6, 0x67, 0x06, 0x66, 0x7e, 0x06, 0x00, 0xb0, 0x03,
   0x00, 0x00, 0xe6, 0x67, 0x98, 0x61, 0x7e, 0x06, 0x00, 0x48, 0x04, 0x00,
   0x00, 0xe6, 0x67, 0x98, 0x61, 0x7e, 0x06, 0x00, 0x48, 0x04, 0x00, 0x00,
   0x06, 0x60, 0x66, 0x66, 0x00, 0x06, 0x00, 0x48, 0x04, 0x00, 0x00, 0x06,
   0x60, 0x66, 0x66, 0x00, 0x06, 0x00, 0x08, 0x04, 0x00, 0x00, 0xfe, 0x7f,
   0x66, 0xe6, 0xff, 0x07, 0x00, 0x00, 0x00, 0x00, 0x00, 0xfe, 0x7f, 0x66,
   0xe6, 0xff, 0x07, 0x00, 0xb0, 0x03, 0x00, 0x00, 0x00, 0x00, 0x98, 0x01,
   0x00, 0x00, 0x00, 0x48, 0x04, 0x00, 0x00, 0x00, 0x00, 0x98, 0x01, 0x00,
   0x00, 0x00, 0x48, 0x04, 0x00, 0x00, 0xfe, 0xe7, 0x1f, 0x9e, 0x99, 0x01,
   0x00, 0x48, 0x04, 0x00, 0x00, 0xfe, 0xe7, 0x1f, 0x9e, 0x99, 0x01, 0x00,
   0x08, 0x04, 0x00, 0x00, 0xfe, 0x1f, 0xf8, 0x01, 0x7e, 0x00, 0x00, 0x00,
   0x00, 0x00, 0x00, 0xfe, 0x1f, 0xf8, 0x01, 0x7e, 0x00, 0x00, 0x08, 0x00,
   0x00, 0x00, 0x86, 0xe1, 0x9f, 0x61, 0x06, 0x00, 0x00, 0x30, 0x00, 0x00,
   0x00, 0x86, 0xe1, 0x9f, 0x61, 0x06, 0x00, 0x00, 0xc0, 0x01, 0x00, 0x00,
   0x60, 0x1e, 0x60, 0xf8, 0x87, 0x01, 0x00, 0x00, 0x06, 0x00, 0x00, 0x60,
   0x1e, 0x60, 0xf8, 0x87, 0x01, 0x00, 0x00, 0x08, 0x00, 0x00, 0x66, 0x60,
   0x66, 0xfe, 0x61, 0x00, 0x00, 0x00, 0x00, 0x00, 0x00, 0x66, 0x60, 0x66,
   0xfe, 0x61, 0x00, 0x00, 0x00, 0x04, 0x00, 0x00, 0x00, 0x00, 0x7e, 0x9e,
   0x7f, 0x00, 0x00, 0x20, 0x04, 0x00, 0x00, 0x00, 0x00, 0x7e, 0x9e, 0x7f,
   0x00, 0x00, 0x20, 0x04, 0x00, 0x00, 0xfe, 0x7f, 0x9e, 0xff, 0x9f, 0x01,
   0x00, 0xf8, 0x03, 0x00, 0x00, 0xfe, 0x7f, 0x9e, 0xff, 0x9f, 0x01, 0x00,
   0x20, 0x00, 0x00, 0x00, 0x06, 0x60, 0x98, 0x19, 0x7e, 0x06, 0x00, 0x00,
   0x00, 0x00, 0x00, 0x06, 0x60, 0x98, 0x19, 0x7e, 0x06, 0x00, 0xc0, 0x07,
   0x00, 0x00, 0xe6, 0x67, 0xe6, 0xe7, 0x61, 0x06, 0x00, 0x20, 0x00, 0x00,
   0x00, 0xe6, 0x67, 0xe6, 0xe7, 0x61, 0x06, 0x00, 0x20, 0x00, 0x00, 0x00,
   0xe6, 0x67, 0x7e, 0x86, 0xf9, 0x01, 0x00, 0x20, 0x00, 0x00, 0x00, 0xe6,
   0x67, 0x7e, 0x86, 0xf9, 0x01, 0x00, 0xf8, 0x07, 0x00, 0x00, 0xe6, 0x67,
   0x66, 0xe0, 0x19, 0x00, 0x00, 0x00, 0x00, 0x00, 0x00, 0xe6, 0x67, 0x66,
   0xe0, 0x19, 0x00, 0x00, 0x00, 0x06, 0x00, 0x00, 0x06, 0x60, 0x06, 0x78,
   0xfe, 0x07, 0x00, 0x00, 0x06, 0x00, 0x00, 0x06, 0x60, 0x06, 0x78, 0xfe,
   0x07, 0x00, 0x00, 0x00, 0x00, 0x00, 0xfe, 0x7f, 0x9e, 0x67, 0xe0, 0x01,
   0x00, 0x60, 0x00, 0x00, 0x00, 0xfe, 0x7f, 0x9e, 0x67, 0xe0, 0x01, 0x00,
   0x80, 0x03, 0x00, 0x00, 0x00, 0x00, 0x00, 0x00, 0x00, 0x00, 0x00, 0x00,
   0x04, 0x00, 0x00, 0x00, 0x00, 0x00, 0x00, 0x00, 0x00, 0x00, 0x80, 0x03,
   0x00, 0x00, 0x00, 0x00, 0x00, 0x00, 0x00, 0x00, 0x00, 0x60, 0x00, 0x00 };
